HIERARCHY
ROOT Hips
{
	OFFSET 0.00000 0.00000 0.00000
	CHANNELS 6 Xposition Yposition Zposition Zrotation Yrotation Xrotation 
	JOINT LHipJoint
	{
		OFFSET 0 0 0
		CHANNELS 3 Zrotation Yrotation Xrotation
		JOINT LeftUpLeg
		{
			OFFSET 1.84395 -1.68683 0.74144
			CHANNELS 3 Zrotation Yrotation Xrotation
			JOINT LeftLeg
			{
				OFFSET 2.27037 -6.23779 0.00000
				CHANNELS 3 Zrotation Yrotation Xrotation
				JOINT LeftFoot
				{
					OFFSET 2.56918 -7.05877 0.00000
					CHANNELS 3 Zrotation Yrotation Xrotation
					JOINT LeftToeBase
					{
						OFFSET 0.22276 -0.61202 1.71784
						CHANNELS 3 Zrotation Yrotation Xrotation
						End Site
						{
							OFFSET 0.00000 -0.00000 0.91613
						}
					}
				}
			}
		}
	}
	JOINT RHipJoint
	{
		OFFSET 0 0 0
		CHANNELS 3 Zrotation Yrotation Xrotation
		JOINT RightUpLeg
		{
			OFFSET -1.76833 -1.68684 0.74144
			CHANNELS 3 Zrotation Yrotation Xrotation
			JOINT RightLeg
			{
				OFFSET -2.49360 -6.85110 0.00000
				CHANNELS 3 Zrotation Yrotation Xrotation
				JOINT RightFoot
				{
					OFFSET -2.55538 -7.02085 0.00000
					CHANNELS 3 Zrotation Yrotation Xrotation
					JOINT RightToeBase
					{
						OFFSET -0.21516 -0.59115 1.68050
						CHANNELS 3 Zrotation Yrotation Xrotation
						End Site
						{
							OFFSET -0.00000 -0.00000 0.89604
						}
					}
				}
			}
		}
	}
	JOINT LowerBack
	{
		OFFSET 0 0 0
		CHANNELS 3 Zrotation Yrotation Xrotation
		JOINT Spine
		{
			OFFSET 0.06382 1.72312 -0.19613
			CHANNELS 3 Zrotation Yrotation Xrotation
			JOINT Spine1
			{
				OFFSET -0.00055 1.73507 0.23859
				CHANNELS 3 Zrotation Yrotation Xrotation
				JOINT Neck
				{
					OFFSET 0 0 0
					CHANNELS 3 Zrotation Yrotation Xrotation
					JOINT Neck1
					{
						OFFSET 0.03638 1.65562 0.09633
						CHANNELS 3 Zrotation Yrotation Xrotation
						JOINT Head
						{
							OFFSET 0.06388 1.62807 -0.32386
							CHANNELS 3 Zrotation Yrotation Xrotation
							End Site
							{
								OFFSET 0.00995 1.67644 -0.12021
							}
						}
					}
				}
				JOINT LeftShoulder
				{
					OFFSET 0 0 0
					CHANNELS 3 Zrotation Yrotation Xrotation
					JOINT LeftArm
					{
						OFFSET 3.09648 1.42991 0.28122
						CHANNELS 3 Zrotation Yrotation Xrotation
						JOINT LeftForeArm
						{
							OFFSET 5.11878 -0.00000 -0.00000
							CHANNELS 3 Zrotation Yrotation Xrotation
							JOINT LeftHand
							{
								OFFSET 3.59971 -0.00000 0.00000
								CHANNELS 3 Zrotation Yrotation Xrotation
								JOINT LeftFingerBase
								{
									OFFSET 0 0 0
									CHANNELS 3 Zrotation Yrotation Xrotation
									JOINT LeftHandIndex1
									{
										OFFSET 0.62877 -0.00000 0.00000
										CHANNELS 3 Zrotation Yrotation Xrotation
										End Site
										{
											OFFSET 0.50693 -0.00000 0.00000
										}
									}
								}
								JOINT LThumb
								{
									OFFSET 0 0 0
									CHANNELS 3 Zrotation Yrotation Xrotation
									End Site
									{
										OFFSET 0.51467 -0.00000 0.51467
									}
								}
							}
						}
					}
				}
				JOINT RightShoulder
				{
					OFFSET 0 0 0
					CHANNELS 3 Zrotation Yrotation Xrotation
					JOINT RightArm
					{
						OFFSET -3.33565 1.14597 0.05047
						CHANNELS 3 Zrotation Yrotation Xrotation
						JOINT RightForeArm
						{
							OFFSET -5.49020 -0.00000 0.00000
							CHANNELS 3 Zrotation Yrotation Xrotation
							JOINT RightHand
							{
								OFFSET -3.20659 -0.00000 -0.00000
								CHANNELS 3 Zrotation Yrotation Xrotation
								JOINT RightFingerBase
								{
									OFFSET 0 0 0
									CHANNELS 3 Zrotation Yrotation Xrotation
									JOINT RightHandIndex1
									{
										OFFSET -0.69188 -0.00000 0.00000
										CHANNELS 3 Zrotation Yrotation Xrotation
										End Site
										{
											OFFSET -0.55781 -0.00000 0.00000
										}
									}
								}
								JOINT RThumb
								{
									OFFSET 0 0 0
									CHANNELS 3 Zrotation Yrotation Xrotation
									End Site
									{
										OFFSET -0.56633 -0.00000 0.56633
									}
								}
							}
						}
					}
				}
			}
		}
	}
}
MOTION
Frames: 8
Frame Time: .0083333
-0.3974 17.4776 8.0777 0 0 0 0 0 0 -21 0 0 0 0 0 0 0 0 0 0 0 0 0 0 21 0 0 0 0 0 0 0 0 0 0 0 0 0 0 0 0 0 0 0 0 0 0 -16 0 0 21 0 0 11 0 0 0 -8 0 0 0 0 0 0 0 0 0 0 0 0 0 0 0 0 0 0 0 0 8 0 0 0 0 0 0 0 0 0 0 0 0 0 0 0 0 0
-0.3974 17.4776 8.0777 -6.3710 -3.5534 7.8559 0.0000 0.0000 0.0000 -22.7776 -36.6578 23.9803 0.0558 -1.5249 -4.1942 -5.0060 41.7781 -41.3939 0.6678 5.2260 14.5543 0.0000 0.0000 0.0000 25.3390 24.9646 7.3645 -0.0078 -0.5699 1.5660 0.6191 -17.1752 -17.3428 -0.0009 0.1953 -0.5367 2.3634 0.6030 1.0114 1.3553 1.0888 -9.6552 0.0207 0.3926 -10.8285 -13.4039 -13.4788 0.2691 11.3861 -20.1362 18.4194 4.0908 -9.9107 8.1856 0.0000 0.0000 0.0000 -91.8234 12.2350 15.6455 11.3532 -18.8276 -1.8883 -0.0000 -0.0000 27.4266 11.9712 -6.1903 -1.3098 -7.1250 0.0000 -0.0000 -10.8814 23.6694 5.6971 0.0000 0.0000 0.0000 90.5452 -13.6681 6.3356 -14.0206 22.7641 -2.8361 0.0000 0.0000 39.2952 7.8797 -32.3378 -4.2340 7.1250 -0.0000 -0.0000 43.1230 -56.8173 -14.2978
-0.3987 17.4779 8.0774 -6.3371 -3.5234 7.8190 0.0000 0.0000 0.0000 -22.8459 -36.6698 24.0519 0.0566 -1.5346 -4.2211 -5.1393 41.9327 -41.1754 0.6049 4.9782 13.8465 0.0000 0.0000 0.0000 25.3317 24.9562 7.4356 -0.0070 -0.5398 1.4832 0.6377 -17.2766 -17.2807 -0.0010 0.2082 -0.5721 2.3254 0.6134 1.0306 1.3289 1.0992 -9.6678 0.0125 0.3994 -10.8542 -13.3917 -13.4821 0.3349 11.4045 -20.1519 18.4098 4.0982 -9.9195 8.1737 0.0000 -0.0000 0.0000 -91.8146 12.2407 15.6358 11.3263 -18.7866 -1.8797 -0.0000 -0.0000 27.4880 12.1269 -6.3532 -1.3621 -7.1250 0.0000 -0.0000 -10.7566 23.5020 5.6717 0.0000 -0.0000 0.0000 90.5912 -13.7221 6.3222 -14.0250 22.7705 -2.8378 0.0000 0.0000 39.1884 7.7460 -32.3502 -4.1629 7.1250 -0.0000 -0.0000 43.0143 -56.8549 -14.2928
-0.3995 17.4779 8.0770 -6.2835 -3.5171 7.7861 0.0000 0.0000 0.0000 -22.9720 -36.7311 24.1527 0.0569 -1.5391 -4.2334 -5.1443 41.9782 -41.2696 0.6076 4.9892 13.8777 0.0000 0.0000 0.0000 25.3003 24.9675 7.4958 -0.0063 -0.5145 1.4139 0.6610 -17.4206 -17.2405 -0.0000 -0.0243 0.0667 2.2739 0.6228 1.0368 1.3075 1.1069 -9.6777 0.0174 0.4064 -10.8693 -13.4073 -13.4847 0.3660 11.4399 -20.1659 18.4067 4.1122 -9.9263 8.1747 0.0000 0.0000 0.0000 -91.8189 12.2329 15.6418 11.3128 -18.7661 -1.8753 -0.0000 -0.0000 27.5500 12.1109 -6.3914 -1.3684 -7.1250 0.0000 -0.0000 -10.7658 23.4640 5.6863 0.0000 0.0000 0.0000 90.6269 -13.7624 6.2458 -14.0323 22.7809 -2.8406 0.0000 0.0000 39.1625 7.7487 -32.3274 -4.1618 7.1250 -0.0000 -0.0000 42.9946 -56.8372 -14.2649
-0.3999 17.4774 8.0765 -6.2850 -3.5334 7.7763 0.0000 0.0000 0.0000 -22.9704 -36.7143 24.1501 0.0566 -1.5358 -4.2245 -5.0940 41.9197 -41.3509 0.6223 5.0480 14.0456 0.0000 0.0000 0.0000 25.3116 24.9846 7.5003 -0.0064 -0.5169 1.4203 0.6646 -17.4505 -17.2512 -0.0016 -0.2567 0.7054 2.2693 0.6290 1.0299 1.3075 1.1152 -9.6974 0.0192 0.4106 -10.8875 -13.3981 -13.5129 0.3002 11.4552 -20.2090 18.4453 4.1040 -9.9415 8.2058 0.0000 0.0000 0.0000 -91.8298 12.2162 15.6059 11.2810 -18.7177 -1.8651 -0.0000 -0.0000 27.6166 12.1127 -6.3196 -1.3533 -7.1250 0.0000 -0.0000 -10.7692 23.5362 5.6700 0.0000 0.0000 0.0000 90.6531 -13.7936 6.1752 -14.0390 22.7905 -2.8432 0.0000 0.0000 39.2176 7.8915 -32.2806 -4.2337 7.1250 -0.0000 -0.0000 43.0779 -56.7716 -14.2283
-0.4033 17.4801 8.0834 -6.1322 -3.5405 7.8971 0.0000 0.0000 0.0000 -23.0644 -36.7722 24.0074 0.0560 -1.5267 -4.1993 -5.0794 41.8930 -41.3495 0.6287 5.0736 14.1187 0.0000 0.0000 0.0000 25.1056 25.0912 7.4361 -0.0060 -0.5013 1.3774 0.6709 -17.5127 -17.2935 -0.0018 -0.2744 0.7540 2.0437 0.6253 0.7396 1.2741 1.0826 -9.7262 0.1156 0.4142 -10.7466 -13.2775 -13.5210 0.3665 11.2525 -20.2054 18.5614 4.0270 -9.9474 8.1976 -0.0000 0.0000 0.0000 -91.8419 12.1782 15.4627 11.2292 -18.6387 -1.8485 -0.0000 -0.0000 27.7603 12.1884 -6.2986 -1.3575 -7.1250 0.0000 -0.0000 -10.7153 23.5553 5.6358 -0.0000 0.0000 0.0000 90.6362 -13.7582 6.2518 -13.9679 22.6887 -2.8157 0.0000 0.0000 39.1513 7.9875 -32.2203 -4.2786 7.1250 -0.0000 -0.0000 43.1057 -56.7057 -14.1674
-0.4085 17.4857 8.0974 -5.7425 -3.5384 8.1270 0.0000 0.0000 0.0000 -23.4578 -37.0186 23.8716 0.0556 -1.5209 -4.1834 -5.1423 42.0301 -41.4123 0.6218 5.0462 14.0405 0.0000 0.0000 0.0000 24.5823 25.2539 7.3259 -0.0048 -0.4460 1.2255 0.6899 -17.6630 -17.3375 -0.0016 -0.2595 0.7130 1.5454 0.6085 0.1946 1.1841 1.0051 -9.7550 0.3099 0.4175 -10.4549 -13.2073 -13.5171 0.4575 11.2123 -20.2018 18.5390 4.0129 -9.9488 8.1617 -0.0000 0.0000 0.0000 -91.8474 12.1598 15.4225 11.2212 -18.6264 -1.8459 -0.0000 -0.0000 27.7703 12.1840 -6.3102 -1.3595 -7.1250 0.0000 -0.0000 -10.7177 23.5438 5.6400 -0.0000 0.0000 0.0000 90.5790 -13.6552 6.4404 -13.8271 22.4870 -2.7616 0.0000 0.0000 38.9630 8.0229 -32.1951 -4.2947 7.1250 -0.0000 -0.0000 43.1131 -56.6793 -14.1414
-0.4113 17.4886 8.1040 -5.5367 -3.5373 8.2339 0.0000 0.0000 0.0000 -23.7131 -37.1922 23.8604 0.0551 -1.5143 -4.1652 -5.1316 42.0926 -41.6212 0.6248 5.0580 14.0740 0.0000 0.0000 0.0000 24.3139 25.3449 7.2908 -0.0041 -0.4144 1.1387 0.6992 -17.7437 -17.3765 -0.0024 -0.3133 0.8609 1.2930 0.5929 -0.0530 1.1352 0.9594 -9.7832 0.4050 0.4152 -10.3400 -13.2310 -13.4994 0.5013 11.2673 -20.1948 18.5536 4.0380 -9.9453 8.1664 -0.0000 0.0000 0.0000 -91.8435 12.1877 15.5119 11.2398 -18.6548 -1.8519 -0.0000 -0.0000 27.6241 12.1899 -6.3298 -1.3644 -7.1250 0.0000 -0.0000 -10.7121 23.5240 5.6419 -0.0000 0.0000 0.0000 90.5663 -13.6326 6.5465 -13.7822 22.4225 -2.7445 0.0000 0.0000 38.8428 8.1210 -32.2504 -4.3544 7.1250 -0.0000 -0.0000 43.2554 -56.7004 -14.2249
